<?xml version="1.0" encoding="UTF-8"?>
<!DOCTYPE svg PUBLIC "-//W3C//DTD SVG 1.1//EN" "http://www.w3.org/Graphics/SVG/1.1/DTD/svg11.dtd">
<!-- Creator: CorelDRAW X7 -->
<svg xmlns="http://www.w3.org/2000/svg" xml:space="preserve" width="8.5in" height="11in" version="1.1" style="shape-rendering:geometricPrecision; text-rendering:geometricPrecision; image-rendering:optimizeQuality; fill-rule:evenodd; clip-rule:evenodd"
viewBox="0 0 8500 11000"
 xmlns:xlink="http://www.w3.org/1999/xlink">
 <defs>
  <style type="text/css">
   <![CDATA[
    .fil0 {fill:#0098DA}
    .fil1 {fill:#000066}
   ]]>
  </style>
 </defs>
 <g id="Layer_x0020_1">
  <metadata id="CorelCorpID_0Corel-Layer"/>
  <g id="_2526714865056">
   <polygon class="fil0" points="5544,3288 5022,3288 4613,3997 5022,4975 4429,4975 4004,3958 4706,2741 6632,2741 6632,3288 6091,3288 6091,4975 5544,4975 "/>
   <polygon class="fil1" points="2415,3288 2937,3288 3345,3997 2937,4975 3529,4975 3954,3958 3253,2741 1868,2741 1868,4975 2415,4975 "/>
   <polygon class="fil1" points="2415,6572 2937,6572 3345,7281 2937,8259 3529,8259 3954,7242 3253,6025 1868,6025 1868,8259 2415,8259 "/>
   <polygon class="fil0" points="5162,6572 4640,6572 4231,7281 4640,8259 4047,8259 3622,7242 4324,6025 6250,6025 6250,6571 5709,6571 5709,8259 5162,8259 "/>
  </g>
 </g>
</svg>
