<?xml version="1.0" encoding="UTF-8" standalone="no"?>
<!-- Created with Inkscape (http://www.inkscape.org/) -->

<svg
   width="26.458332mm"
   height="26.458332mm"
   viewBox="0 0 26.458333 26.458332"
   version="1.1"
   id="svg383"
   xml:space="preserve"
   inkscape:version="1.2.2 (732a01da63, 2022-12-09)"
   sodipodi:docname="customization_path.svg"
   xmlns:inkscape="http://www.inkscape.org/namespaces/inkscape"
   xmlns:sodipodi="http://sodipodi.sourceforge.net/DTD/sodipodi-0.dtd"
   xmlns="http://www.w3.org/2000/svg"
   xmlns:svg="http://www.w3.org/2000/svg"><sodipodi:namedview
     id="namedview385"
     pagecolor="#ffffff"
     bordercolor="#000000"
     borderopacity="0.25"
     inkscape:showpageshadow="2"
     inkscape:pageopacity="0.0"
     inkscape:pagecheckerboard="0"
     inkscape:deskcolor="#d1d1d1"
     inkscape:document-units="mm"
     showgrid="false"
     showguides="true"
     inkscape:zoom="4.4016688"
     inkscape:cx="12.268074"
     inkscape:cy="49.072297"
     inkscape:window-width="1680"
     inkscape:window-height="987"
     inkscape:window-x="-8"
     inkscape:window-y="-8"
     inkscape:window-maximized="1"
     inkscape:current-layer="layer1"><sodipodi:guide
       position="-0.00082420897,15.86537"
       orientation="1,0"
       id="guide748"
       inkscape:locked="false" /><sodipodi:guide
       position="9.2558932,21.4569"
       orientation="0,-1"
       id="guide754"
       inkscape:locked="false" /><sodipodi:guide
       position="8.6514922,2.8405391"
       orientation="0,-1"
       id="guide756"
       inkscape:locked="false" /><sodipodi:guide
       position="26.457511,12.179639"
       orientation="1,0"
       id="guide873"
       inkscape:locked="false" /></sodipodi:namedview><defs
     id="defs380"><style
       type="text/css"
       id="style4">
   <![CDATA[
    .str0 {stroke:#373435;stroke-width:6.94488}
    .fil0 {fill:#FEFEFE}
    .fil1 {fill:#373435;fill-rule:nonzero}
   ]]>
  </style></defs><g
     inkscape:label="Layer 1"
     inkscape:groupmode="layer"
     id="layer1"
     transform="translate(-77.656899,-105.17995)"><path
       id="polygon8"
       class="fil0 str0"
       style="clip-rule:evenodd;fill:#fefefe;fill-rule:evenodd;stroke:none;stroke-width:0.179971;image-rendering:optimizeQuality;shape-rendering:geometricPrecision;text-rendering:geometricPrecision"
       d="m 92.453051,115.72701 h 4.50906 v -1.34753 l -1.166136,-1.52894 h -2.228616 l -1.114308,1.52894 z" /><path
       class="fil0 str0"
       d="m 88.8769,119.17359 c 3.550237,-2.12496 1.088394,-6.73768 -1.632591,-7.72241 0.466454,2.41001 -2.617328,2.77281 -2.435929,5.51971 0.05183,1.01065 1.010651,1.78807 1.891732,2.22862 0.777424,-0.28506 1.451192,-0.23323 2.176788,-0.0259 z"
       id="path10"
       style="clip-rule:evenodd;fill:#ffffff;fill-rule:evenodd;stroke:none;image-rendering:optimizeQuality;shape-rendering:geometricPrecision;text-rendering:geometricPrecision" /><g
       id="g11657"
       style="fill:#000000"><path
         style="color:#000000;fill:#000000;stroke-linejoin:round;-inkscape-stroke:none"
         d="m 80.599609,110.18164 c -1.626092,0 -2.943359,1.31727 -2.943359,2.94336 v 12.69336 c 0,1.62609 1.317267,2.94336 2.943359,2.94336 h 20.572271 c 1.62609,0 2.94335,-1.31727 2.94335,-2.94336 V 113.125 c 0,-1.62609 -1.31726,-2.94336 -2.94335,-2.94336 z m 0,0.5 h 20.572271 c 1.35774,0 2.44335,1.08562 2.44335,2.44336 v 12.69336 c 0,1.35774 -1.08561,2.44336 -2.44335,2.44336 H 80.599609 c -1.357741,0 -2.443359,-1.08562 -2.443359,-2.44336 V 113.125 c 0,-1.35774 1.085618,-2.44336 2.443359,-2.44336 z"
         id="rect875" /><path
         id="polygon14"
         class="fil1"
         style="clip-rule:evenodd;fill:#000000;stroke-width:0.0259141;shape-rendering:geometricPrecision"
         d="m 77.915218,125.83353 v -0.5442 h 25.914142 v 0.5442 z" /><path
         class="fil1"
         d="m 90.120778,127.18106 c -0.12957,0 -0.233227,-0.12957 -0.233227,-0.25914 0,-0.15549 0.103657,-0.28506 0.233227,-0.28506 z m 1.632591,0 h -1.632591 v -0.5442 h 1.632591 z m 0,-0.5442 c 0.129571,0 0.233227,0.12957 0.233227,0.28506 0,0.12957 -0.103656,0.25914 -0.233227,0.25914 z"
         id="path36"
         style="clip-rule:evenodd;fill:#000000;stroke-width:0.0259141;shape-rendering:geometricPrecision" /><path
         class="fil1"
         d="m 85.896774,131.63829 c -0.155485,0 -0.285056,-0.12957 -0.285056,-0.25914 0,-0.15548 0.129571,-0.28505 0.285056,-0.28505 z m 10.106514,0 H 85.896774 v -0.54419 h 10.106514 z m 0,-0.54419 c 0.155485,0 0.259142,0.12957 0.259142,0.28505 0,0.12957 -0.103657,0.25914 -0.259142,0.25914 z"
         id="path38"
         style="clip-rule:evenodd;fill:#000000;stroke-width:0.0259141;shape-rendering:geometricPrecision" /><path
         id="polygon40"
         class="fil1"
         style="clip-rule:evenodd;fill:#000000;stroke-width:0.0259141;shape-rendering:geometricPrecision"
         d="m 88.436359,128.45085 0.544197,0.0518 -0.259141,2.98013 -0.518283,-0.0518 z" /><path
         id="polygon42"
         class="fil1"
         style="clip-rule:evenodd;fill:#000000;stroke-width:0.0259141;shape-rendering:geometricPrecision"
         d="m 93.152733,131.48281 -0.233228,-2.98013 0.518283,-0.0518 0.259142,2.98013 z" /><g
         id="g4754"
         style="fill:#000000"><path
           style="color:#000000;fill:#000000;stroke-linejoin:round;-inkscape-stroke:none"
           d="m 87.410156,118.77148 c -0.203882,0.0219 -0.380483,0.0584 -0.519531,0.10352 -0.06952,0.0225 -0.127696,0.0473 -0.183594,0.0781 -0.0559,0.0308 -0.123772,0.0447 -0.175781,0.18554 -1.479491,3.58577 -0.601563,6.4707 -0.601563,6.47071 l 0.478516,-0.14649 c 0,0 -0.815172,-2.67583 0.572266,-6.08594 0.01825,-0.008 0.03254,-0.015 0.06445,-0.0254 0.09691,-0.0314 0.247001,-0.0654 0.419922,-0.084 0.315095,-0.0339 0.714105,0.007 1.080078,0.12695 1.33633,3.34048 0.457031,6.0625 0.457031,6.0625 l 0.474609,0.15625 c 0,0 0.977556,-2.9725 -0.503906,-6.53515 a 0.25002449,0.25002449 0 0 0 -0.140625,-0.13672 c -0.496266,-0.19511 -1.014109,-0.21375 -1.421875,-0.16993 z"
           id="path4676" /><path
           style="color:#000000;fill:#000000;stroke-linecap:round;stroke-linejoin:round;-inkscape-stroke:none"
           d="m 87.146484,114.20508 c -0.976676,0.80208 -1.353298,1.45249 -1.414062,2.04492 -0.06076,0.59243 0.182453,1.05927 0.304687,1.48047 a 0.24999949,0.24999949 0 0 0 0.310547,0.17187 0.24999949,0.24999949 0 0 0 0.169922,-0.31054 c -0.140194,-0.48309 -0.332462,-0.86788 -0.289062,-1.29102 0.0434,-0.42314 0.312267,-0.95011 1.236328,-1.70898 a 0.24999949,0.24999949 0 0 0 0.0332,-0.35352 0.24999949,0.24999949 0 0 0 -0.351563,-0.0332 z"
           id="path4741" /><path
           style="color:#000000;fill:#000000;stroke-linecap:round;stroke-linejoin:round;-inkscape-stroke:none"
           d="m 87.320312,111.23438 a 0.25002449,0.25002449 0 0 0 -0.333984,0.28515 c 0.168857,0.7839 -0.09342,1.31504 -0.519531,1.85938 -0.426109,0.54433 -1.025257,1.05953 -1.433594,1.72656 -0.43406,0.70905 -0.593412,1.54948 -0.353516,2.3457 0.239897,0.79622 0.878805,1.5298 1.960938,2.03906 a 0.24999949,0.24999949 0 0 0 0.332031,-0.12109 0.24999949,0.24999949 0 0 0 -0.11914,-0.33203 c -0.984981,-0.46354 -1.500919,-1.08527 -1.695313,-1.73047 -0.194394,-0.6452 -0.06869,-1.33272 0.302734,-1.93945 0.352051,-0.57508 0.930178,-1.08151 1.398438,-1.67969 0.373241,-0.4768 0.591218,-1.07373 0.59375,-1.75977 1.565441,0.75669 2.581904,2.09821 2.839844,3.48243 0.278346,1.49373 -0.225145,2.92817 -1.613282,3.58203 a 0.24999949,0.24999949 0 0 0 -0.11914,0.33203 0.24999949,0.24999949 0 0 0 0.332031,0.11914 c 1.604577,-0.75581 2.20045,-2.46234 1.890625,-4.125 -0.309824,-1.66266 -1.504703,-3.31816 -3.462891,-4.08398 z"
           id="path4743" /><path
           style="color:#000000;fill:#000000;stroke-linecap:round;stroke-linejoin:round;-inkscape-stroke:none"
           d="M 87.226562,121.44922 A 0.24999949,0.24999949 0 0 0 86.9375,121.6543 c -0.145334,0.87206 -0.218744,1.77972 -0.07617,2.75195 a 0.24999949,0.24999949 0 0 0 0.283203,0.21094 0.24999949,0.24999949 0 0 0 0.212891,-0.28321 c -0.132528,-0.90374 -0.06637,-1.75404 0.07422,-2.59765 a 0.24999949,0.24999949 0 0 0 -0.205079,-0.28711 z"
           id="path4745" /><path
           style="color:#000000;fill:#000000;stroke-linecap:round;stroke-linejoin:round;-inkscape-stroke:none"
           d="m 86.230469,120.33594 a 0.24999949,0.24999949 0 0 0 -0.179688,0.30469 0.24999949,0.24999949 0 0 0 0.304688,0.17968 c 1.013558,-0.2595 1.893229,-0.21417 2.707031,0.0273 a 0.24999949,0.24999949 0 0 0 0.310547,-0.16797 0.24999949,0.24999949 0 0 0 -0.167969,-0.31055 c -0.89291,-0.265 -1.878939,-0.31372 -2.974609,-0.0332 z"
           id="path4747" /></g><g
         id="path8478"
         style="fill:#000000" /><g
         id="path8480"
         transform="translate(0.01511001)"
         style="fill:#000000" /><g
         id="path8482"
         style="fill:#000000" /><g
         id="path8484"
         style="fill:#000000"><path
           id="path11603"
           style="color:#000000;fill:#000000;stroke-linecap:round;stroke-linejoin:round;-inkscape-stroke:none"
           d="m 95.646484,116.82227 a 0.24999949,0.24999949 0 0 0 -0.25,0.25 l -0.01563,6.79882 a 0.24999949,0.24999949 0 0 0 0.25,0.25 0.24999949,0.24999949 0 0 0 0.25,-0.24804 l 0.01563,-6.80078 a 0.24999949,0.24999949 0 0 0 -0.25,-0.25 z m -1.05e-4,0.25011 -0.01511,6.7995 m -1.752363,-7.01836 a 0.24999949,0.24999949 0 0 0 -0.25,0.25 v 6.76757 a 0.24999949,0.24999949 0 0 0 0.25,0.25 0.24999949,0.24999949 0 0 0 0.25,-0.25 v -6.76757 a 0.24999949,0.24999949 0 0 0 -0.25,-0.25 z m -3.99e-4,0.24908 v 6.76928 m -1.359491,-8.37969 a 0.24999949,0.24999949 0 0 0 -0.25,0.25 0.24999949,0.24999949 0 0 0 0.25,0.25 h 4.396485 a 0.24999949,0.24999949 0 0 0 0.25,-0.25 0.24999949,0.24999949 0 0 0 -0.25,-0.25 z m -4.08e-4,0.25051 h 4.397014 m -1.167575,-3.1509 -2.189453,0.0293 a 0.24999949,0.24999949 0 0 0 -0.248047,0.25391 0.24999949,0.24999949 0 0 0 0.253906,0.24609 l 2.191406,-0.0293 a 0.24999949,0.24999949 0 0 0 0.246094,-0.25391 0.24999949,0.24999949 0 0 0 -0.253906,-0.24609 z m -2.186849,0.27999 2.190951,-0.0302 m -1.099805,-1.67948 a 0.25002449,0.25002449 0 0 0 -0.197266,0.10156 l -2.203125,2.9668 a 0.25002449,0.25002449 0 0 0 -0.04883,0.14844 l -0.01367,11.01367 h 0.5 l 0.01367,-10.92969 1.958984,-2.63867 2.0625,2.62891 v 10.99218 h 0.5 v -11.07812 a 0.25002449,0.25002449 0 0 0 -0.05273,-0.1543 l -2.320313,-2.95508 a 0.25002449,0.25002449 0 0 0 -0.199218,-0.0957 z" /></g></g></g></svg>
