<?xml version="1.0" encoding="UTF-8"?>
<svg width="100px" height="100px" clip-rule="evenodd" fill-rule="evenodd" image-rendering="optimizeQuality" shape-rendering="geometricPrecision" text-rendering="geometricPrecision" version="1.1" viewBox="0 0 1021 828" xml:space="preserve" xmlns="http://www.w3.org/2000/svg" xmlns:cc="http://creativecommons.org/ns#" xmlns:dc="http://purl.org/dc/elements/1.1/" xmlns:rdf="http://www.w3.org/1999/02/22-rdf-syntax-ns#"><metadata><rdf:RDF><cc:Work rdf:about=""><dc:format>image/svg+xml</dc:format><dc:type rdf:resource="http://purl.org/dc/dcmitype/StillImage"/><dc:title/></cc:Work></rdf:RDF></metadata>
 <defs>
  <style type="text/css">
   <![CDATA[
    .str0 {stroke:#373435;stroke-width:6.94488}
    .fil0 {fill:#FEFEFE}
    .fil1 {fill:#373435;fill-rule:nonzero}
   ]]>
  </style>
 </defs>
 <g transform="translate(0,96.5)">
  
  
   <polygon class="fil0 str0" points="571 214 745 214 745 162 700 103 614 103 571 162"/>
   <path class="fil0 str0" d="m433 347c137-82 42-260-63-298 18 93-101 107-94 213 2 39 39 69 73 86 30-11 56-9 84-1z"/>
   
    
     <path class="fil1" d="m823 21h-623v-21h623zm0-21c6 0 10 5 10 10 0 6-4 11-10 11zm91 21h-91v-21h91zm107 86h-21v-9l-5-20-4-8-1-4-3-3-2-4-2-3-3-4-3-3-2-3-3-3-4-2-3-3-3-2-4-3-3-2-4-2-4-1-4-2-16-4-5-1h-8v-21h5l6 1h5l10 2 10 4 5 1 5 3 5 2 4 3 4 2 5 3 4 4 4 3 7 7 9 12 3 5 3 4 4 10 2 4 2 5 1 5 2 6 1 5v5l1 6v5zm-21 502v-502h21v502zm-86 108v-21h4l4-1h5l16-4 12-6 3-2 4-2 3-2 3-3 4-3 3-3 2-3 6-6 2-3 2-4 3-4 1-3 4-8 4-16 1-5v-9h21v6l-1 5v6l-1 5-2 5-1 5-6 15-2 4-3 5-6 8-3 5-7 7-3 4-8 6-5 3-8 6-20 8-20 4h-6l-5 1zm-807-21h807v21h-807zm-107-87h21v9l1 5 4 16 2 4 1 4 2 3 2 4 3 4 2 3 3 3 2 3 9 9 4 3 3 2 4 2 3 2 12 6 16 4h4l5 1h4v21l-5-1h-6l-10-2-6-1-5-1-5-2-4-2-10-4-4-3-5-3-12-9-4-4-3-4-3-3-4-5-3-4-2-4-3-5-2-4-3-5-1-5-4-10-2-10v-6l-1-5v-6zm21-502v502h-21v-502zm86-107v21h-9l-20 5-4 2-4 1-4 2-3 2-4 3-3 2-4 3-3 2-6 6-2 3-3 4-2 3-3 4-2 3-2 4-1 4-2 4-5 20v9h-21v-5l1-6v-5l1-5 1-6 4-10 1-4 3-5 2-5 3-4 2-5 3-4 4-4 6-8 8-6 4-4 4-3 5-2 4-3 5-2 5-3 4-1 10-4 6-1 5-1h5l6-1h5zm93 21h-93v-21h93zm0-21c6 0 11 5 11 10 0 6-5 11-11 11z"/>
    
    
     <polygon class="fil1" points="10 604 10 583 1010 583 1010 604"/>
    
    
     
      <path class="fil1" d="m457 596c-2 5-8 8-13 6-6-2-9-8-7-13zm-34-255 10 18 4-13 3 7 3 8 3 7 2 8 3 8 10 40 1 8 2 9 2 16 1 9 2 16v16l1 9v8l-1 8v15l-1 8-1 7-1 8-2 7-1 7-6 21-20-7 6-18 2-14 1-6 1-7 1-8v-7l1-7v-23l-1-8v-7l-6-48-2-8-2-7-1-8-4-16-2-7-3-8-2-7-3-7-2-7-3-7zm-5 13c-2-6 1-12 6-14s11 1 13 6zm-38-306-20 3 13-11 11 4 11 5 10 6 20 14 18 16 9 9 16 20 7 10 7 11 12 22 5 12 4 12 6 24 2 12v25l-1 12-2 12-4 12-4 11-6 12-7 11-8 10-20 20-13 9-13 8-10-18 12-8 11-7 17-17 7-9 6-10 5-9 4-10 4-20 1-10 1-11-1-11-2-10-2-11-3-11-4-10-4-11-5-10-12-20-7-10-14-18-8-8-9-8-8-7-18-12-18-10-10-4zm-14 11c-5-2-8-8-6-13s8-8 13-6zm-80 203-21 1v-10l2-20 1-9 3-8 3-9 3-7 4-8 4-7 5-6 4-7 10-12 5-5 5-6 6-5 4-6 10-10 12-15 4-6 3-5 2-5 3-6 1-6 2-6v-20l-1-8 20-3 2 9v17l-1 9-2 7-2 8-6 14-12 18-5 6-4 6-5 5-5 6-10 10-5 6-10 10-8 12-4 5-4 6-3 7-3 6-6 21-1 8v18zm75 91-19-8 5 13-4-2-3-1-4-2-6-4-4-2-3-2-4-3-6-4-4-3-3-2-18-18-2-3-3-3-2-3-2-4-3-3-2-4-1-4-2-3-1-4-2-4-2-8v-5l-1-4 21-1v3l1 3v3l3 9 2 3 1 3 1 2 6 9 2 2 2 3 10 10 3 2 5 5 21 14 3 1 4 2 3 2 3 1zm-5-14c5 3 7 9 5 14-3 5-9 8-14 5zm-17 251-21 5-1-9-2-8-5-40v-9l-1-8v-24l1-8v-8l2-16v-8l1-8 2-8 2-16 2-7 2-8 1-8 2-7 3-8 4-14 3-7 2-7 6-14 19 8-3 6-2 7-3 7-2 6-8 28-2 8-2 7-1 7-2 8-1 7-1 8-1 7-1 8v7l-1 8v8l-1 7v24l1 7v8l1 8v8l1 7 2 8 1 8 1 7zm0 0c1 6-3 11-8 13-6 1-11-3-13-8z"/>
     
     
      <polygon class="fil1" points="431 357 428 356 425 356 423 355 420 354 418 354 415 353 413 353 411 352 408 352 406 352 403 352 401 351 398 351 396 351 394 351 391 351 389 351 386 351 384 351 381 351 379 351 377 352 374 352 372 353 369 353 366 354 364 354 361 355 359 355 356 356 353 357 351 358 344 338 347 337 350 336 353 335 356 335 359 334 362 333 365 333 368 332 371 332 374 331 377 331 380 330 383 330 385 330 388 330 391 330 394 330 397 330 400 330 403 331 405 331 408 331 411 332 414 332 417 332 419 333 422 333 425 334 428 335 431 335 433 336 436 337"/>
     
     
      <polygon class="fil1" points="442 410 440 410 437 409 434 409 431 409 428 408 425 408 422 407 418 407 415 407 411 407 408 406 404 406 401 406 397 406 393 406 390 406 386 406 382 406 379 406 375 406 372 406 368 406 365 406 361 406 358 407 354 407 351 408 348 408 345 409 342 409 339 410 337 410 331 390 335 389 338 389 341 388 345 387 348 387 352 386 356 386 359 386 363 385 367 385 371 385 375 385 378 385 382 385 386 385 390 385 394 385 398 385 402 385 405 385 409 385 413 386 417 386 420 386 424 387 427 387 431 388 434 388 437 388 440 389 443 389 446 390"/>
     
     
      <path class="fil1" d="m357 447c1-6 6-9 12-8 5 0 9 5 8 11zm17 95-21 1v-9l-1-3v-46l1-3v-9l1-3v-6l1-3v-6l1-3v-3l1-2 20 3v2l-1 3v6l-1 2v6l-1 3v8l-1 3v20l-1 3v3l1 3v21l1 3v3zm0 0c1 5-4 10-9 10-6 1-11-3-12-9z"/>
     
     
      <path class="fil1" d="m362 161c5-4 11-3 15 1 3 4 3 10-1 14zm-22 119-20 7-1-2-6-18v-4l-1-3v-4l-1-4v-11l1-4v-4l1-5 1-4 2-4 1-5 4-8 3-5 3-4 6-10 4-4 4-5 5-4 10-10 6-4 14 15-6 4-5 4-12 12-9 12-2 3-4 8-1 3-2 4-2 6v4l-1 3v15l1 3v3l1 3v2l2 6 1 2 1 3 1 2zm0 0c2 5-1 11-6 13s-12-1-14-6z"/>
     
     
      <path class="fil1" d="m581 587c0 6-5 11-10 11-6 0-11-5-11-11zm0-425v425h-21v-425l2-7zm-21 0c0-6 5-11 11-11 5 0 10 5 10 11zm105-109-86 115-17-13 86-114h16zm-17-12c3-5 10-6 14-2 5 3 6 10 3 14zm89 127-89-114 16-13 90 114 2 7zm17-13c3 5 2 11-2 15-5 3-11 2-15-2zm-19 434v-427h21v427zm21 0c0 6-5 11-11 11-5 0-10-5-10-11z"/>
     
     
      <polygon class="fil1" points="571 225 571 204 745 204 745 225"/>
     
     
      <polygon class="fil1" points="614 114 614 93 700 93 700 114"/>
     
     
      <path class="fil1" d="m615 266c0-5 5-10 11-10 5 0 10 5 10 10zm0 263v-263h21v263zm21 0c0 5-5 10-10 10-6 0-11-5-11-10z"/>
     
     
      <path class="fil1" d="m683 266c0-5 5-10 11-10s10 5 10 10zm0 263v-263h21v263zm21 0c0 5-4 10-10 10s-11-5-11-10z"/>
     
    
    
     <path class="fil1" d="m481 656c-5 0-9-5-9-10 0-6 4-11 9-11zm63 0h-63v-21h63zm0-21c5 0 9 5 9 11 0 5-4 10-9 10z"/>
    
    
     <path class="fil1" d="m318 828c-6 0-11-5-11-10 0-6 5-11 11-11zm390 0h-390v-21h390zm0-21c6 0 10 5 10 11 0 5-4 10-10 10z"/>
    
    
     <polygon class="fil1" points="416 705 437 707 427 822 407 820"/>
    
    
     <polygon class="fil1" points="598 822 589 707 609 705 619 820"/>
    
   
  
 </g>
</svg>
