<?xml version="1.0" encoding="UTF-8" standalone="no"?>
<svg
   width="86"
   height="25"
   viewBox="0 0 86 25"
   fill="none"
   version="1.1"
   id="svg812"
   sodipodi:docname="Group 130.svg"
   inkscape:version="1.2.2 (732a01da63, 2022-12-09)"
   xmlns:inkscape="http://www.inkscape.org/namespaces/inkscape"
   xmlns:sodipodi="http://sodipodi.sourceforge.net/DTD/sodipodi-0.dtd"
   xmlns="http://www.w3.org/2000/svg"
   xmlns:svg="http://www.w3.org/2000/svg">
  <defs
     id="defs816" />
  <sodipodi:namedview
     id="namedview814"
     pagecolor="#ffffff"
     bordercolor="#000000"
     borderopacity="0.25"
     inkscape:showpageshadow="2"
     inkscape:pageopacity="0.0"
     inkscape:pagecheckerboard="0"
     inkscape:deskcolor="#d1d1d1"
     showgrid="false"
     showguides="true"
     inkscape:zoom="6.6453488"
     inkscape:cx="40.780402"
     inkscape:cy="14.897638"
     inkscape:window-width="1680"
     inkscape:window-height="987"
     inkscape:window-x="-8"
     inkscape:window-y="-8"
     inkscape:window-maximized="1"
     inkscape:current-layer="svg812">
    <sodipodi:guide
       position="25,1.5625"
       orientation="1,0"
       id="guide1903"
       inkscape:locked="false" />
    <sodipodi:guide
       position="0,0"
       orientation="-1,0"
       id="guide1905"
       inkscape:locked="false" />
  </sodipodi:namedview>
  <path
     id="path806"
     style="fill:#000000"
     d="M 78.4993,9.375 C 78.2921,9.375 78.0934,9.29269 77.9469,9.14618 77.8004,8.99966 77.7181,8.80095 77.7181,8.59375 V 3.38542 c 0,-1.00521 -0.8178,-1.82292 -1.823,-1.82292 -1.0052,0 -1.8229,0.81771 -1.8229,1.82292 v 5.20833 c 0,0.2072 -0.0823,0.40591 -0.2288,0.55243 C 73.6969,9.29269 73.4982,9.375 73.291,9.375 73.0838,9.375 72.8851,9.29269 72.7385,9.14618 72.592,8.99966 72.5097,8.80095 72.5097,8.59375 V 3.38542 C 72.5097,1.51875 74.0285,0 75.8951,0 c 1.8667,0 3.3855,1.51875 3.3855,3.38542 v 5.20833 c 0,0.2072 -0.0824,0.40591 -0.2289,0.55243 C 78.9052,9.29269 78.7065,9.375 78.4993,9.375 Z M 83.7941,25 H 67.9962 c -0.2847,3e-4 -0.5661,-0.0603 -0.8253,-0.1777 -0.2593,-0.1175 -0.4904,-0.2892 -0.6778,-0.5034 -0.1874,-0.2142 -0.3268,-0.4661 -0.4087,-0.7387 -0.0819,-0.2726 -0.1046,-0.5596 -0.0663,-0.8417 L 68.1233,6.94167 c 0.0653,-0.47905 0.3016,-0.91834 0.6653,-1.23688 0.3637,-0.31854 0.8303,-0.49486 1.3138,-0.49646 h 11.5844 c 0.9958,0 1.8458,0.74479 1.9792,1.73229 l 2.1052,15.79898 c 0.038,0.2819 0.0153,0.5687 -0.0666,0.841 -0.082,0.2724 -0.2213,0.5241 -0.4086,0.7382 -0.1872,0.2142 -0.4181,0.3857 -0.6772,0.5032 -0.2591,0.1175 -0.5403,0.1782 -0.8247,0.178 z M 70.1024,6.77083 c -0.1053,5.3e-4 -0.207,0.03907 -0.2862,0.10854 -0.0792,0.06947 -0.1307,0.16519 -0.145,0.26959 L 67.566,22.9458 c -0.0085,0.0614 -0.0038,0.1239 0.014,0.1832 0.0177,0.0594 0.048,0.1143 0.0888,0.1609 0.0408,0.0466 0.0912,0.0839 0.1477,0.1094 0.0564,0.0255 0.1177,0.0385 0.1797,0.0382 h 15.7979 c 0.0618,6e-4 0.1231,-0.0123 0.1794,-0.0379 0.0563,-0.0255 0.1064,-0.0631 0.1466,-0.11 0.041,-0.0463 0.0715,-0.1009 0.0895,-0.16 0.018,-0.0592 0.023,-0.1215 0.0147,-0.1827 L 82.1191,7.14792 C 82.1046,7.04371 82.053,6.94823 81.9738,6.87898 81.8946,6.80972 81.7931,6.77133 81.6878,6.77083 Z" />
  <path
     id="path810"
     style="fill:#000000;stroke:none"
     d="m 39.162777,18.774 c -5.1813,0 -9.3969,-4.2105 -9.3969,-9.3854599 0,-5.17708 4.2156,-9.38854001607666 9.3969,-9.38854001607666 5.1812,0 9.3968,4.211460016076661 9.3968,9.387500016076661 0,5.1759999 -4.2156,9.3864999 -9.3968,9.3864999 z m 0,-17.2114999 c -4.3198,0 -7.8344,3.51042 -7.8344,7.82604 0,4.3145599 3.5146,7.8239599 7.8344,7.8239599 4.3198,0 7.8354,-3.5104 7.8354,-7.8249999 0,-4.31458 -3.5146,-7.825 -7.8354,-7.825 z M 54.2187,25 c -0.1033,3e-4 -0.2057,-0.0202 -0.301,-0.0601 -0.0954,-0.0398 -0.1818,-0.0984 -0.2542,-0.1722 l -8.127,-8.2271 c -0.1351,-0.1494 -0.2074,-0.3452 -0.2018,-0.5465 0.0057,-0.2014 0.0888,-0.3928 0.232,-0.5344 0.1432,-0.1416 0.3356,-0.2226 0.537,-0.2259 0.2014,-0.0034 0.3963,0.0711 0.5442,0.2079 l 8.1271,8.227 c 0.1082,0.1099 0.1815,0.2492 0.2107,0.4005 0.0293,0.1513 0.0132,0.3079 -0.0462,0.4501 -0.0594,0.1422 -0.1595,0.2637 -0.2878,0.3492 -0.1282,0.0855 -0.2788,0.1313 -0.433,0.1315 z" />
  <path
     id="path1672"
     style="color:#000000;fill:#000000;stroke-linejoin:bevel;-inkscape-stroke:none"
     d="m 12.5,0.0234375 c -3.4291961,0 -6.2265625,2.7973664 -6.2265625,6.2265625 -3e-7,3.4291963 2.7973662,6.226563 6.2265625,6.226563 3.429196,0 6.226563,-2.7973665 6.226562,-6.226563 0,-3.4291963 -2.797366,-6.22656275 -6.226562,-6.2265625 z m 0,1.609375 c 2.559089,-2e-7 4.617187,2.058099 4.617187,4.6171875 10e-7,2.5590887 -2.058098,4.617188 -4.617187,4.617188 -2.5590886,0 -4.6171877,-2.0580994 -4.6171875,-4.617188 0,-2.5590884 2.0580991,-4.6171875 4.6171875,-4.6171875 z m 0,13.0468755 c -2.085334,0 -5.0539081,0.495109 -7.609375,1.511718 C 3.6128915,16.699711 2.4390023,17.337278 1.5390625,18.162109 0.63912267,18.986941 0,20.054893 0,21.291016 V 25 H 25 V 21.291016 C 25,20.054893 24.360876,18.986941 23.460937,18.162109 22.560999,17.337278 21.387107,16.699711 20.109375,16.191406 17.55391,15.174797 14.585343,14.679688 12.5,14.679688 Z m 0,1.609374 c 1.817883,0 4.697449,0.477004 7.013672,1.398438 1.158111,0.460717 2.176382,1.034164 2.859375,1.660156 0.682993,0.625992 1.017578,1.248662 1.017578,1.94336 v 2.099609 H 1.609375 v -2.099609 c 0,-0.694697 0.3345837,-1.317368 1.0175781,-1.94336 C 3.3099475,18.721664 4.3282154,18.148217 5.4863281,17.6875 7.8025535,16.766066 10.682128,16.289063 12.5,16.289062 Z" />
</svg>
