<?xml version="1.0" encoding="UTF-8"?>
<svg width="100px" height="100px" clip-rule="evenodd" fill-rule="evenodd" image-rendering="optimizeQuality" shape-rendering="geometricPrecision" text-rendering="geometricPrecision" version="1.1" viewBox="0 0 1003 1021" xml:space="preserve" xmlns="http://www.w3.org/2000/svg" xmlns:cc="http://creativecommons.org/ns#" xmlns:dc="http://purl.org/dc/elements/1.1/" xmlns:rdf="http://www.w3.org/1999/02/22-rdf-syntax-ns#"><metadata><rdf:RDF><cc:Work rdf:about=""><dc:format>image/svg+xml</dc:format><dc:type rdf:resource="http://purl.org/dc/dcmitype/StillImage"/><dc:title/></cc:Work></rdf:RDF></metadata>
 <defs>
  <style type="text/css">
   <![CDATA[
    .str0 {stroke:#373435;stroke-width:20.8346;stroke-linecap:round;stroke-linejoin:round}
    .fil1 {fill:none}
    .fil0 {fill:#FEFEFE}
    .fil2 {fill:#373435}
   ]]>
  </style>
 </defs>
 <g transform="translate(0 .5827)">
  
  
   <polygon class="fil0" points="538 64 572 148 487 190 452 98"/>
   <polygon class="fil0" points="658 320 707 434 589 486 541 369"/>
   <polyline class="fil1 str0" points="10 10 205 67 472 725"/>
   <line class="fil1 str0" x1="665" x2="993" y1="817" y2="670"/>
   <circle class="fil2 str0" cx="529" cy="865" r="145"/>
   <polyline class="fil1 str0" points="309 324 256 492 390 811"/>
   <polyline class="fil1 str0" points="548 718 423 420 780 272 927 617 622 752"/>
   <polygon class="fil1 str0" points="628 31 733 291 470 401 365 134"/>
   <line class="fil1 str0" x1="323" x2="410" y1="646" y2="574"/>
   <circle class="fil0" cx="529" cy="865" r="69"/>
  
 </g>
</svg>
