<?xml version="1.0" encoding="UTF-8"?>
<svg width="100px" height="100px" style="clip-rule:evenodd;fill-rule:evenodd;image-rendering:optimizeQuality;shape-rendering:geometricPrecision;text-rendering:geometricPrecision" version="1.1" viewBox="0 0 1043 1021" xmlns="http://www.w3.org/2000/svg" xmlns:cc="http://creativecommons.org/ns#" xmlns:dc="http://purl.org/dc/elements/1.1/" xmlns:rdf="http://www.w3.org/1999/02/22-rdf-syntax-ns#">
<metadata>
<rdf:RDF>
<cc:Work rdf:about="">
<dc:format>image/svg+xml</dc:format>
<dc:type rdf:resource="http://purl.org/dc/dcmitype/StillImage"/>
<dc:title/>
</cc:Work>
</rdf:RDF>
</metadata>
<defs>
<style type="text/css"><![CDATA[
    .fil1 {fill:#373435;fill-rule:nonzero}
   ]]></style>
</defs>
<g>
<g transform="translate(0,11)">
<g transform="translate(0,-1.585e-4)" style="clip-rule:evenodd;fill-rule:evenodd;fill:#333;image-rendering:optimizeQuality;shape-rendering:geometricPrecision">
<path class="fil1" d="m399 339h-21v-9l-3-27-2-9-3-8-2-9-4-8-3-8-4-7-4-8-15-21-18-18-7-6-6-5-7-5-8-5-7-4-16-8-16-6-9-2-8-2-9-2-18-2h-9v-21l10 1h10l10 2 10 1 10 3 9 2 9 3 27 12 16 10 16 12 7 6 7 7 6 7 7 7 6 8 5 7 5 8 5 9 5 8 4 9 3 9 3 10 3 9 4 20 2 20zm-199 200v-21h9l18-2 9-2 8-2 9-2 16-6 16-8 7-4 8-5 7-5 6-5 7-6 18-18 15-21 8-16 3-7 4-9 2-8 3-8 2-9 3-27v-9h21v10l-2 20-4 20-3 9-3 10-3 9-4 9-10 16-5 9-5 7-6 8-7 7-6 7-7 7-7 6-8 6-8 5-8 6-8 4-9 5-9 4-9 3-9 4-9 2-10 3-10 1-10 2h-10zm-200-200h21v9l3 27 2 9 6 16 3 9 3 7 4 8 5 8 4 7 5 7 6 7 5 6 12 12 7 6 21 15 7 4 16 8 16 6 18 4 8 2 18 2h10v21l-11-1h-10l-10-2-10-1-9-3-10-2-9-4-9-3-9-4-9-5-8-4-8-6-8-5-7-6-8-6-7-7-12-14-6-8-6-7-5-9-5-8-4-8-8-18-3-10-3-9-4-20-2-20zm200-200v21h-10l-18 2-8 2-18 4-16 6-16 8-7 4-21 15-7 6-12 12-5 6-6 7-5 7-4 7-5 8-4 7-6 16-3 9-3 8-2 9-3 27v9h-21v-10l2-20 4-20 3-9 3-10 8-18 4-8 5-9 5-8 6-7 6-8 12-14 7-7 8-6 7-6 8-6 16-10 27-12 9-3 10-2 9-3 10-1 10-2h10z" style="fill:#333"/>
</g>
<path class="fil1" d="m343 109h554v21h-554l-11-11zm0 21c-6 0-11-5-11-11 0-5 5-10 11-10zm-11 42v-53h21v53l-17 8zm21 0c0 6-5 11-10 11-6 0-11-5-11-11zm-53-22h21l-5-9h1l2 2h1l2 2h1l2 1 1 1h1l2 2h1l3 3h1l3 3h1l4 4h1l6 6-13 15-1-1h-1l-3.0002-3h-1l-3-3h-1v-1l-1-1h-1l-1.9999-1.9999h-1l-2-2h-1l-2-2h-1l-2-2h-1l-1-1h-1l-2-2h-1l-1-1h-1zm5 9c-4-3-6-10-3-15 3-5 9-6 14-3zm18-115-2 106h-21l2-106zm-21 0c0-6 5-10 11-10 5 0 10 5 10 10zm41-44v21h-10l-1 1h-3v1h-2v1h-1v1l-1 1v1l-1 1v4l-1 2v10h-21v-10l1-2v-5l1-2v-2l5-10 1-1 1-2 3-3 10-5h2l2-1h4l2-1h6zm0 0c5 0 10 5 10 10 0 6-5 11-10 11zm524 21h-524v-21h524zm0-21c6 0 11 5 11 10 0 6-5 11-11 11zm41 42h-21v-6l-0.99999-1v-6l-1-1v-1l-1-1v-1l-1.9999-2h-2v-1h-3l-2-1h-8v-21h9l2 1h4l4 2h2l6 3 7 7 4 8v1l1 2v2l1 3v8l1 3zm0 0c0 6-5 11-11 11-6 0-10-5-10-11zm-22 77 1-77h21l-1 77-10 11zm21 0c0 6-4 11-10 11-6 0-11-5-11-11z" style="clip-rule:evenodd;fill-rule:nonzero;fill:#373435;image-rendering:optimizeQuality;shape-rendering:geometricPrecision"/>
<path class="fil1" d="m323 581h-21l16-9h1v1h1l1 1h1l1 1h2v1h1l1 1h1l1 1h2l2 2h2l1 1h2l1 1h1v1h2l1 1h3l-7 20h-2.0004l-1-1.0002h-1l-1-1h-2l-1-1h-1l-1-1h-2l-1-1h-1l-1-1h-1l-1-1h-1l-1-1h-1l-1-1h-1.9996l-1-1h-1l-1.9999-1.9998h-1l-1-1h-1l-1-1h-1zm-16 9c-5-3-6-9-4-14 3-5 10-7 15-4zm-5 393v-402h21v402zm21 0c0 6-5 10-10 10-6 0-11-4-11-10zm25 17v21h-9l-3-1h-6l-2-1h-2l-2-1.0001h-2l-8-4-6-6-2-3.9999-1-1.0001-1-2v-2l-1-3v-4l-1-2v-7h21v8l1 1v3h1v1l1 1h1v1h2l1 1h4l2 0.99993h10zm0 0c6 0 11 5 11 10 0 6-5 11-11 11zm516 21h-516v-21h516zm0-21c6 0 10 5 10 10 0 6-4 11-10 11zm23-17h21v3l-1 2v5l-1 2v2l-1 2v2l-2 4-3 3-1 2-1 1.0001-2 1-3 3-4 2h-2l-1 1-2 1.0001h-2l-2 1h-6l-2 1h-7.9998v-21h8l1-0.99992h5l1-1h2v-1h1l1-1h1v-1l1-1v-1l1-1v-4l1-2v-1zm0 0c0-5 4-10 10-10 6 0 11 5 11 10zm21-133v133h-21v-133l10-10zm-21 0c0-5 4-10 10-10 6 0 11 5 11 10zm-21-10h31v21h-31l-11-11zm0 21c-6 0-11-5-11-11 0-5 5-10 11-10zm-11 37v-48h21v48l-10 11zm21 0c0 6-4 11-10 11-6 0-11-5-11-11zm-533-10h523v21h-523l-11-10zm0 21c-6 0-11-5-11-10 0-6 5-11 11-11zm10-315v305h-21v-305l14-10zm-21 0c0-5 5-10 11-10 5 0 10 5 10 10z" style="clip-rule:evenodd;fill-rule:nonzero;fill:#333;image-rendering:optimizeQuality;shape-rendering:geometricPrecision"/>
<g transform="translate(0,-1.585e-4)" style="clip-rule:evenodd;fill-rule:evenodd;fill:#333;image-rendering:optimizeQuality;shape-rendering:geometricPrecision">
<path class="fil1" d="m639 952h-21v-3l-1-1v-2l-1-1v-1h-1l-1-1v-1h-1l-1-1h-1l-1-1h-4v-21h6l2 1h2l1 1h2l1 1 2 1h1l1 1 2 1 3 3 1 2 3 3 1 2 2 2v2l1 1v2l1 2v3l1 1v2zm-33 33v-21h4v-1h2v-1h1l3-3v-1h1v-2l1-1v-3h21v3l-1 2v3l-1 2v1l-1 2v1l-1 2-2 2-1 2-6 6-2 1-2 2-2 1h-1l-2 1-1 1h-4l-1 1h-4zm-34-33h21v2h1v3h1v2h1v1h1v1h1v1h1l1 1h1v1h5v21h-5l-2-1h-3l-2-1-1-1h-2l-1-1-2-1-3-3-2-1-4-4-1-2-2-2v-2l-1-1-1-2v-3l-1-1v-5zm34-33v21h-5l-1 1h-1v1h-1l-1 1v1h-1l-1 1v2h-1v2l-1 1v2h-21l1-2v-5l1-1v-4l1-1 1-2v-1l1-1 1-2 3-3 1-2 1-1 2-1 3-3h2l1-1 2-1h1l2-1h1l2-1h5z" style="fill:#333"/>
</g>
<circle class="fil1" cx="520" cy="66" r="12" style="clip-rule:evenodd;fill-rule:nonzero;fill:#333;image-rendering:optimizeQuality;shape-rendering:geometricPrecision"/>
<circle class="fil1" cx="562" cy="66" r="12" style="clip-rule:evenodd;fill-rule:nonzero;fill:#333;image-rendering:optimizeQuality;shape-rendering:geometricPrecision"/>
<circle class="fil1" cx="605" cy="66" r="12" style="clip-rule:evenodd;fill-rule:nonzero;fill:#333;image-rendering:optimizeQuality;shape-rendering:geometricPrecision"/>
<circle class="fil1" cx="647" cy="66" r="12" style="clip-rule:evenodd;fill-rule:nonzero;fill:#333;image-rendering:optimizeQuality;shape-rendering:geometricPrecision"/>
<circle class="fil1" cx="690" cy="66" r="12" style="clip-rule:evenodd;fill-rule:nonzero;fill:#333;image-rendering:optimizeQuality;shape-rendering:geometricPrecision"/>
<g transform="translate(0,-1.585e-4)" style="clip-rule:evenodd;fill-rule:evenodd;fill:#333;image-rendering:optimizeQuality;shape-rendering:geometricPrecision">
<path class="fil1" d="m473 492h-21l18-8 5 5v1l10 10h1l2 2h2l1 1h2l1 1h6v21h-7l-2-1h-2l-3-1h-2l-2-1-1-1-6-3-1-1-2-1-3-3-2-1-5-5v-1l-4-4v-1h-1l-1-1zm-17 8c-5-4-5-11-1-15s10-5 15-1zm-4 271v-279h21v279zm21 0c0 6-5 11-10 11-6 0-11-5-11-11zm43 61v21l-4-1h-9l-8-2-3-2-4-1-3-2-4-2-3-2-2-2-3-2-3-3-4-6-2-2-1-3-2-4-1-3-2-3-1-3-1-4-1-3v-4l-1-3v-4l-1-3v-7l-1-4v-7h21v10l1 3v6l1 3v2l1 3v3l1 2 1 3 1 2 1 3 3 6 8 8 10 5h3l3 1h3l3 1zm0 0c6 0 11 4 11 10s-5 11-11 11zm512 21h-512v-21h512l11 10zm0-21c6 0 11 4 11 10s-5 11-11 11zm11-121v131h-21v-131l10-11zm-21 0c0-6 5-11 10-11 6 0 11 5 11 11zm-104-11h114v21h-114zm0 21c-6 0-10-4-10-10s4-11 10-11zm0-106v21h-3l-6 2-6 3-1 2-2 2-1 2-2 3-1 3-1 2v3l-1 4v9l1 4v3l2 6 1 2 2 3 1 2 6 6 6 3h5v21h-5l-5-1-5-2-8-4-4-3-3-4-3-3-3-4-2-4-2-5-2-4-1-4-2-10v-9l1-5v-4l1-5 2-4 1-5 2-4 6-8 3-3 8-6 5-2 10-2zm0 0c6 0 10 5 10 11s-4 10-10 10zm115 21h-115v-21h115l10 11zm0-21c5 0 10 5 10 11s-5 10-10 10zm10-100v111h-21v-111l10-11zm-21 0c0-6 5-11 10-11 6 0 11 5 11 11zm-518-11h528v21h-528zm0 21c-6 0-10-5-10-10 0-6 4-11 10-11z" style="fill:#333"/>
</g>
<g transform="translate(0,-1.585e-4)" style="clip-rule:evenodd;fill-rule:evenodd;fill:#333;image-rendering:optimizeQuality;shape-rendering:geometricPrecision">
<path class="fil1" d="m499 504h517v21h-517zm0 21c-6 0-10-5-10-10 0-6 4-11 10-11zm8-131v21h-5l-4 1-6 2-4 2-8 8-2 3-6 12-2 8v5l-1 4v9l1 4v4l2 4 2 8 4 6 3 2 2 2 3 2 2 1 4 1 3 1h4v21h-6l-7-2-5-1-6-3-5-3-8-8-6-10-4-10-2-6-1-6-1-5v-12l2-12 1-5 4-12 2-5 3-5 4-5 8-8 5-4 5-3 6-3 6-1 6-2zm0 0c5 0 10 5 10 10 0 6-5 11-10 11zm90 21h-90v-21h90l7 18zm0-21c6 0 10 5 10 10 0 6-4 11-10 11zm237-212-230 230-14-15 229-230h15zm-15-15c4-4 11-4 15 0s4 11 0 15zm189 206-189-191 15-15 189 191 3 7zm15-15c4 4 4 11 0 15s-11 4-15 0zm-17 48-1-40 21-1 1 41-16 9zm21 0c0 6-5 10-11 10s-10-4-10-10zm-1 57h-21l8-10h1l1-1h1v-1h1l1-1v-1l2-2v-1l1-1v-2l1-1v-12l-1-2v-1l-1-2v-1l-1-2-6-6-2-1 10-18 3 1 2 2 3 2 2 2 2 3 2 2 2 3 1 3 2 2 2 6v3l1 3v11l-1 3v3l-2 6-1 2-1 3-1 2-2 3-8 8-9 3zm-8 10c-6 1-11-2-12-8-2-5 2-11 7-12zm-13 42v-52h21v52l-10 10zm21 0c0 5-4 10-10 10s-11-5-11-10z" style="fill:#333"/>
</g>
<g transform="translate(0,-1.585e-4)" style="clip-rule:evenodd;fill-rule:evenodd;fill:#333;image-rendering:optimizeQuality;shape-rendering:geometricPrecision">
<path class="fil1" d="m354 339h-21v-7l-1-7-1-6-1-7-1-6-2-7-4-12-6-12-3-5-4-6-3-5-4-5-14-14-15-12-5-3-12-6-5-3-7-2-18-6-14-2h-13v-21h8l7 1 16 2 14 4 8 2 7 3 6 3 7 3 7 4 12 8 6 5 5 5 6 5 5 5 5 6 4 6 5 6 4 6 3 6 4 7 3 7 2 7 3 7 2 7 2 8 1 7 2 16zm-154 154v-21h13l14-2 18-6 7-2 5-3 12-6 5-3 15-12 14-14 4-5 3-5 4-6 3-5 6-12 4-12 2-7 1-6 1-7 1-6 1-7v-7h21v8l-1 8-1 7-1 8-2 8-2 7-3 7-2 7-3 7-4 6-3 7-4 6-5 6-4 6-5 6-5 5-6 5-5 5-6 5-12 8-7 4-7 3-6 3-7 3-8 2-14 4-16 2-7 1zm-155-154h21v7l1 7 1 6 1 7 1 6 2 7 2 6 3 6 2 6 3 6 4 5 3 6 12 15 9 9 15 12 5 3 18 9 18 6 7 2 6 1 7 1h14v21h-8l-16-2-7-1-8-2-14-4-21-9-6-4-7-4-6-4-5-5-6-5-5-5-6-5-4-6-5-6-8-12-4-7-3-6-9-21-2-7-1-8-2-8-1-7v-8zm155-154v21h-14l-7 1-6 1-7 2-18 6-18 9-5 3-15 12-9 9-12 15-3 6-4 5-3 6-2 6-3 6-2 6-2 7-1 6-1 7-1 6-1 7v7h-21l1-8v-8l1-8 2-7 1-8 2-7 12-28 12-18 5-6 4-6 6-5 5-5 6-5 5-5 6-4 7-4 6-4 21-9 14-4 8-2 7-1 16-2z" style="fill:#333"/>
</g>
<g transform="translate(0,-1.585e-4)" style="clip-rule:evenodd;fill-rule:evenodd;fill:#333;image-rendering:optimizeQuality;shape-rendering:geometricPrecision">
<path class="fil1" d="m353 464-21-2 18 8-1 2-16 16-3 1-6 6-3 2-2 1-4 4-3 1-4 4-3 1-2 2-3 1-2 2-2 1-3 1-2 1-2 2-3 1-4 2-3 1-8-19 14-7 3-1 2-2 4-2 2-2 2-1 2-2 2-1 3-2 2-1 2-2 2-1 4-4 2-1 4-4 2-1 1-2 11-11zm-18-8c4-4 10-5 14-1 5 4 5 10 1 15zm81 131 1-21-3 21-18-6-5-3-6-2-5-3-4-2-5-3-8-6-10-10-6-8-2-4-3-4-2-4-1-4-2-5-1-4-2-10-1-4-1-5v-11l-1-5v-5l1-6v-11l21 2v5l-1 5v15l1 4v9l2 8 1 3 1 4 1 3 1 4 4 6 1 3 5 5 2 3 3 2 3 3 3 2 3 3 4 2 3 2 5 2 4 2 15 6 6 2zm4-20c5 1 8 7 7 13-2 5-8 8-13 7zm-149-64 8 19 4-16 3 3 3 4 6 6 4 3 6 6 4 3 3 2 4 3 4 2 4 3 20 10 5 2 4 1 4 2 5 1 5 2 4 1 25 5h5l6 1h10l-1 21h-6l-5-1h-6l-6-1-5-1h-6l-5-2-5-1-6-1-5-1-5-2-5-1-20-8-4-2-5-2-4-3-5-2-4-3-5-3-20-15-3-4-11-11-3-4zm-4 16c-4-4-3-11 2-15 4-3 11-3 14 2z" style="fill:#333"/>
</g>
<g transform="translate(-399.1 -75.287)" style="clip-rule:evenodd;fill-rule:evenodd;fill:#fff;image-rendering:optimizeQuality;shape-rendering:geometricPrecision">
<g class="fil1 " style="fill:#fff" aria-label="$">
<path d="m592.52 539.18v-24.889q-18.667-2.3506-30.42-8.2964-11.615-6.084-20.188-19.497-8.4347-13.413-9.8174-32.771l25.027-4.7013q2.9037 20.05 10.232 29.452 10.509 13.274 25.166 14.795v-79.231q-15.348-2.9037-31.388-11.892-11.892-6.6371-18.39-18.39-6.3606-11.753-6.3606-26.687 0-26.548 18.805-43.003 12.583-11.062 37.334-13.551v-11.892h14.657v11.892q21.709 2.0741 34.43 12.721 16.316 13.551 19.635 37.196l-25.719 3.8716q-2.2124-14.657-9.2643-22.4-6.9137-7.8816-19.082-10.371v71.764q18.805 4.7013 24.889 7.3285 11.615 5.1161 18.943 12.445 7.3285 7.3285 11.2 17.422 4.0099 10.094 4.0099 21.847 0 25.857-16.455 43.141t-42.588 18.529v25.166zm0-217.92q-14.519 2.2124-22.953 11.615-8.2964 9.4026-8.2964 22.262 0 12.721 7.052 21.294 7.1902 8.573 24.198 13.689zm14.657 172.01q14.519-1.7976 23.921-12.583 9.5409-10.785 9.5409-26.687 0-13.551-6.7754-21.709-6.6371-8.2964-26.687-14.795z" style="fill:#fff"/>
</g>
</g>
<g transform="translate(0,-1.585e-4)" style="clip-rule:evenodd;fill-rule:evenodd;fill:#333;image-rendering:optimizeQuality;shape-rendering:geometricPrecision">
<path class="fil1" d="m807 680h-21v-10l-4-20-2-4-2-5-2-4-2-5-2-4-6-8-3-3-6-8-3-3-12-9-4-2-4-3-4-2-5-2-4-2-5-1-4-2-10-2h-5l-5-1h-5v-20h12l18 3 5 2 12 4 5 2 20 12 4 4 5 4 8 8 3 4 4 5 3 5 4 4 2 5 3 6 3 5 2 5 2 6 1 6 2 6 1 5v6l1 7zm-120 120v-21h10l15-3 4-1 5-2 4-2 5-2 8-4 16-12 6-6 12-16 4-8 2-5 2-4 2-5 1-4 3-15v-10h21v6l-1 6v6l-1 6-2 6-1 6-2 5-2 6-6 10-2 5-4 5-3 5-4 4-3 5-8 8-5 4-4 3-5 3-5 4-5 3-5 2-5 3-12 4-5 1-6 2-6 1h-6l-6 1zm-121-120h21v5l1 5v5l2 10 2 4 1 5 2 4 2 5 2 4 3 4 2 4 9 12 3 3 4 3 3 3 12 9 4 2 5 2 4 2 5 2 4 2 20 4h10v21h-6l-7-1h-6l-6-1-5-2-6-1-6-2-5-2-5-3-6-2-5-3-5-4-4-3-5-3-12-12-4-5-4-4-12-20-2-5-2-6-2-5-2-6-3-18v-6zm121-120v20h-5l-5 1h-5l-10 2-5 2-4 1-5 2-4 2-5 2-4 3-4 2-8 6-3 3-4 3-6 8-3 3-3 4-2 4-3 4-2 5-2 4-2 5-1 4-2 5-2 10v5l-1 5v5h-21l1-6v-7l1-6 1-5 1-6 4-12 4-10 3-6 3-5 3-4 3-5 4-5 16-16 5-4 4-3 10-6 6-3 10-4 12-4 5-1 12-2h7z" style="fill:#333"/>
</g>
<g class="fil1 " transform="translate(0,-1.995e-4)" style="clip-rule:evenodd;fill-rule:nonzero;fill:#333;image-rendering:optimizeQuality;shape-rendering:geometricPrecision" aria-label="$">
<path d="m683.8 742.49v-12.537q-9.4029-1.1841-15.323-4.179-5.8507-3.0646-10.169-9.8208-4.2487-6.7561-4.9452-16.507l12.607-2.3681q1.4627 10.099 5.1542 14.836 5.2935 6.6865 12.676 7.4526v-39.91q-7.7312-1.4627-15.811-5.99-5.99-3.3432-9.2636-9.2636-3.2039-5.9203-3.2039-13.443 0-13.373 9.4725-21.661 6.3382-5.5721 18.806-6.8258v-5.99h7.383v5.99q10.935 1.0448 17.343 6.4079 8.2188 6.8258 9.8904 18.736l-12.955 1.9502q-1.1144-7.383-4.6666-11.283-3.4825-3.9701-9.6118-5.2238v36.149q9.4725 2.3681 12.537 3.6915 5.8507 2.5771 9.5422 6.2686t5.6417 8.776q2.0199 5.0845 2.0199 11.005 0 13.025-8.2885 21.731-8.2884 8.7064-21.452 9.3332v12.676zm0-109.77q-7.3133 1.1144-11.562 5.8507-4.179 4.7363-4.179 11.214 0 6.4079 3.5522 10.726 3.6218 4.3184 12.189 6.8954zm7.383 86.646q7.3134-0.90546 12.05-6.3382 4.8059-5.4328 4.8059-13.443 0-6.8258-3.4129-10.935-3.3432-4.179-13.443-7.4526z" style="fill:#333"/>
</g>
<g transform="translate(0,-1.585e-4)" style="clip-rule:evenodd;fill-rule:evenodd;fill:#fff;image-rendering:optimizeQuality;shape-rendering:geometricPrecision">
<path class="fil1" d="m785 472c-4 4-11 4-15 0s-5-10-1-15zm85-92-85 92-16-15 86-91zm-15-14c4-4 11-5 15-1s4 11 0 15z" style="fill:#fff"/>
</g>
<g transform="translate(0,-1.585e-4)" style="clip-rule:evenodd;fill-rule:evenodd;fill:#fff;image-rendering:optimizeQuality;shape-rendering:geometricPrecision">
<path class="fil1" d="m860 472c-4 4-10 4-15 0-4-4-4-10 0-15zm105-113-105 113-15-15 105-112zm-15-14c4-4 11-5 15-1s4 11 0 15z" style="fill:#fff"/>
</g>
<g transform="translate(0,-1.585e-4)" style="clip-rule:evenodd;fill-rule:evenodd;fill:#fff;image-rendering:optimizeQuality;shape-rendering:geometricPrecision">
<path class="fil1" d="m638 472c-4 4-11 4-15 0s-4-10 0-15zm13-45 15 14-28 31-15-15zm0 0c4-4 11-5 15-1s4 11 0 15zm58-31c-4 4-10 4-15 0-4-4-4-11 0-15zm13-45 16 14-29 31-15-15zm0 0c4-4 11-5 15-1s5 11 1 15z" style="fill:#fff"/>
</g>
<g transform="translate(0,-1.585e-4)" style="clip-rule:evenodd;fill-rule:evenodd;fill:#fff;image-rendering:optimizeQuality;shape-rendering:geometricPrecision">
<path class="fil1" d="m826 260-30 32-15-14 30-32zm23-15-15 15v-1h-2v-1h-3v1h-2v1h-1l-15-14 5-5h1l2-1h1l1-1h1l1-1h5l2-1h1l1 1h5l1 1h2l1 1h1l1 1h1l2 2 2 1zm-10 20-5-5 15-15 5 5zm16 22-16-14 1-1v-1h1v-4l-1-1v-1h-1l15-15h1v1l1 2 2 2v1l2 2v3l1 1v2l1 2v6l-1 1v4l-1 1v1l-1 1-1 2v1l-3 3zm-46 17 30-31 16 14-31 32zm-22 16 14-15h1l1 1h5v-1h1v-1l15 15-2 2h-1l-3 3h-1l-1 1h-2l-1 1h-2l-1 1h-9l-2-1h-2l-1-1h-1l-2-1h-1l-3-3h-1zm9-20 5 5-14 15-5-5zm-15-22 15 14-1 1v2h-1v1l1 1v2h1v1l-14 15-4-4v-1l-2-2v-2l-1-1v-2l-1-2v-11l1-1v-3l1-1v-1l2-2v-1l2-2z" style="fill:#fff"/>
</g>
<g transform="translate(0,-1.585e-4)" style="clip-rule:evenodd;fill-rule:evenodd;fill:#333;image-rendering:optimizeQuality;shape-rendering:geometricPrecision">
<path class="fil1" d="m514 475c-5 0-10-5-10-11 0-5 5-10 10-10zm492 0h-492v-21h492zm0-21c5 0 10 5 10 10 0 6-5 11-10 11zm3-39v-21h4l4 1 3 1 4 2 3 2 5 5 6 9 2 6 1 4 1 3 1 4v10l-1 4-1 3-1 4-1 3-4 6-6 6-6 4-4 2-4 1-5 1h-4v-21h4l4-2h1l3-3 1-2 1-1 1-2v-1l1-2v-10l-1-2v-2l-3-6-5-5h-1l-1-1h-1zm0 0c-6 0-11-5-11-11 0-5 5-10 11-10zm-24-21h24v21h-24zm0 21c-6 0-10-5-10-11 0-5 4-10 10-10z" style="fill:#333"/>
</g>
</g>
</g>
</svg>
