<?xml version="1.0" encoding="UTF-8"?>
<svg width="100px" height="100px" clip-rule="evenodd" fill-rule="evenodd" image-rendering="optimizeQuality" shape-rendering="geometricPrecision" text-rendering="geometricPrecision" version="1.1" viewBox="0 0 1021 537" xml:space="preserve" xmlns="http://www.w3.org/2000/svg" xmlns:cc="http://creativecommons.org/ns#" xmlns:dc="http://purl.org/dc/elements/1.1/" xmlns:rdf="http://www.w3.org/1999/02/22-rdf-syntax-ns#"><metadata><rdf:RDF><cc:Work rdf:about=""><dc:format>image/svg+xml</dc:format><dc:type rdf:resource="http://purl.org/dc/dcmitype/StillImage"/><dc:title/></cc:Work></rdf:RDF></metadata>
 <defs>
  <style type="text/css">
   <![CDATA[
    .str0 {stroke:#373435;stroke-width:6.94494}
    .fil0 {fill:#FEFEFE}
    .fil1 {fill:#373435;fill-rule:nonzero}
   ]]>
  </style>
 </defs>
 <g transform="translate(0,242)">
  
  
   
    <polygon class="fil0 str0" points="535 225 642 225 642 146 535 146"/>
    <polygon class="fil0 str0" points="479 227 479 306 586 306 586 227"/>
    <polygon class="fil0 str0" points="586 306 694 306 694 227 586 227"/>
    <polygon class="fil0 str0" points="694 306 801 306 801 227 694 227"/>
    <polygon class="fil0 str0" points="777 225 777 146 670 146 670 225"/>
   
   
    <path class="fil1" d="m586 238h-107v-21h107l11 10zm0-21c6 0 11 5 11 10 0 6-5 11-11 11zm-10 89v-79h21v79l-11 10zm21 0c0 5-5 10-11 10-5 0-10-5-10-10zm-118-11h107v21h-107l-10-10zm0 21c-5 0-10-5-10-10 0-6 5-11 10-11zm11-89v79h-21v-79l10-10zm-21 0c0-5 5-10 10-10 6 0 11 5 11 10z"/>
   
   
    <path class="fil1" d="m586 238-10-11 10-10h108v21zm0-21v21c-5 0-10-5-10-11 0-5 5-10 10-10zm11 89-11 10-10-10v-79h21zm-21 0h21c0 5-5 10-11 10-5 0-10-5-10-10zm118-11 10 11-10 10h-108v-21zm0 21v-21c5 0 10 5 10 11 0 5-5 10-10 10zm-11-89 11-10 10 10v79h-21zm21 0h-21c0-5 5-10 11-10 5 0 10 5 10 10z"/>
   
   
    <path class="fil1" d="m801 238h-107v-21h107l10 10zm0-21c5 0 10 5 10 10 0 6-5 11-10 11zm-11 89v-79h21v79l-10 10zm21 0c0 5-5 10-10 10-6 0-11-5-11-10zm-117-11h107v21h-107l-11-10zm0 21c-6 0-11-5-11-10 0-6 5-11 11-11zm10-89v79h-21v-79l11-10zm-21 0c0-5 5-10 11-10 5 0 10 5 10 10z"/>
   
   
    <path class="fil1" d="m535 157-11-11 11-10h107v21zm0-21v21c-6 0-11-5-11-11 0-5 5-10 11-10zm10 89-10 10-11-10v-79h21zm-21 0h21c0 5-5 10-10 10-6 0-11-5-11-10zm118-11 10 11-10 10h-107v-21zm0 21v-21c5 0 10 5 10 11 0 5-5 10-10 10zm-11-89 11-10 10 10v79h-21zm21 0h-21c0-5 5-10 11-10 5 0 10 5 10 10z"/>
   
   
    <path class="fil1" d="m670 157-11-11 11-10h107v21zm0-21v21c-6 0-11-5-11-11 0-5 5-10 11-10zm10 89-10 10-11-10v-79h21zm-21 0h21c0 5-5 10-10 10-6 0-11-5-11-10zm118-11 10 11-10 10h-107v-21zm0 21v-21c5 0 10 5 10 11 0 5-5 10-10 10zm-11-89 11-10 10 10v79h-21zm21 0h-21c0-5 5-10 11-10 5 0 10 5 10 10z"/>
   
   
    <path class="fil1" d="m187 21-10-11 10-10h113v21zm0-21v21c-6 0-10-5-10-11 0-5 4-10 10-10zm10 67-10 10-10-10v-57h20zm-20 0h20c0 6-4 10-10 10s-10-4-10-10zm123-10 10 10-10 10h-113v-20zm0 20v-20c5 0 10 4 10 10s-5 10-10 10zm-11-67 11-10 10 10v57h-21zm21 0h-21c0-5 5-10 11-10 5 0 10 5 10 10z"/>
   
   
    <path class="fil1" d="m187 21-10-11 10-10h113v21zm0-21v21c-6 0-10-5-10-11 0-5 4-10 10-10zm10 158-10 11-10-11v-148h20zm-20 0h20c0 6-4 11-10 11s-10-5-10-11zm123-10 10 10-10 11h-113v-21zm0 21v-21c5 0 10 5 10 10 0 6-5 11-10 11zm-11-159 11-10 10 10v148h-21zm21 0h-21c0-5 5-10 11-10 5 0 10 5 10 10z"/>
   
   
    <path class="fil1" d="m66 296h334v21h-334l-9-14zm0 21c-5 0-10-5-10-11 0-5 5-10 10-10zm67-155-57 148-19-7 56-148 10-7zm-20-7c2-6 8-8 14-6 5 2 8 8 6 13zm251 14h-241v-21h241l10 8zm0-21c5 0 10 5 10 10 0 6-5 11-10 11zm26 161-37-148 21-5 36 148-10 13zm20-5c1 5-2 11-8 12-5 2-11-2-12-7z"/>
   
   
    <path class="fil1" d="m884 504 19 7c-1 5-7 8-13 7-5-2-8-8-6-14zm85-232 10 14-3 7-4 14-3 7-2 7-3 7-4 14-3 7-4 14-3 7-2 7-3 7-4 14-3 7-4 14-3 7-4 14-3 7-4 14-3 7-4 14-3 7-2 8-2 7-3 7-19-7 4-14 3-7 4-14 3-7 4-14 3-8 4-14 3-7 4-14 3-7 4-14 3-7 4-14 3-7 2-7 3-7 4-14 3-7 2-7 3-7 4-14 3-7 2-7 10 14zm10 14-20-7c2-6 8-8 13-7 6 2 9 8 7 14zm-160 7-9-16 9-5h150v21zm0-21v21c-6 0-11-5-11-11 0-5 5-10 11-10zm-5 40-9 5-9-16 14-24 18 10zm-18-11 18 11c-3 5-9 6-14 3-5-2-7-9-4-14zm-782 16-10-9 10-12h791v21zm0-21v21c-5 0-10-5-10-11 0-5 5-10 10-10zm38 202-2-6-2-5-3-6-2-6-1-6-2-6-2-5-4-12-1-6-4-12-1-6-2-6-1-6-2-6-2-12-2-6-3-18-2-6-5-30-2-6-3-18 21-4 1 7 5 30 1 5 2 6 4 24 2 6 2 12 2 6 1 5 1 6 2 6 1 6 2 6 2 5 1 6 2 6 2 5 1 6 2 6 2 5 2 6 2 5 2 6 2 5zm0 0 19-8c2 6 0 12-6 14-5 2-11-1-13-6z"/>
   
   
    <path class="fil1" d="m31 369c-6 0-10-5-10-10 0-6 4-11 10-11zm912 0h-912v-21h912zm0-21c6 0 11 5 11 11 0 5-5 10-11 10z"/>
   
   
    <path class="fil1" d="m0 480c0-6 5-11 11-11 5 0 10 5 10 11zm67 0-19 6 20-5 1 6v16l-2 10-1 4-2 4-3 4-2 3-3 3-3 2-4 2-8 2h-7l-8-2-4-2-3-3-3-2-3-4-3-3-4-8-2-5-1-5-2-5v-6l-1-6v-6h21v10l2 8 3 9 2 2 1 2 4 4 2 1h2l1 1h1l1-1h2v-1l2-2 3-6 1-3v-15l-1-4zm-20 5c-1-6 3-11 9-12 5-1 11 2 12 8zm85-5h-21 21v6l-2 12-1 5-2 5-1 4-4 8-3 4-3 3-2 3-4 2-3 2-12 3h-4l-8-2-3-2-4-2-3-3-3-2-3-3-9-12-2-4-2-5-3-5-2-6-1-5 19-6 2 5 2 4 1 4 4 8 2 3 2 2 2 3 2 2 2 1 3 3h2l1 1h5l1-1h1l4-4 2-4 1-3 2-3 1-3v-4l1-5 1-4v-6zm-21-1c0-5 5-10 11-10 6 1 10 6 10 11zm77 1h-21 20v6l-2 12-1 5-4 10-4 8-9 9-4 2-3 2-4 2-4 1h-8l-4-1-4-2-3-1-4-3-6-6-2-3-3-4-1-5-2-4-2-5-1-5v-6l-1-6v-6h21v10l2 8 1 3 1 4 2 4 2 2 1 2 1 1 2 1h1l1 1h4l1-1h2l6-6 1-2 1-3 2-3 3-12v-5l1-5zm-21-1c0-5 5-10 11-10 5 1 10 6 9 11zm76 1h-21 21v6l-2 12-2 5-1 5-2 5-2 4-3 4-2 3-3 3-4 3-3 2-4 2-3 2-4 1h-8l-4-1-4-2-4-1-12-12-2-4-2-5-2-4-2-10-1-6v-12h21v10l1 4v4l1 3 1 4 2 2 2 4 4 4h1l1 1h5l1-1h1l2-1 1-2 2-1 1-2 2-2 2-6 3-12 1-5v-5zm-21-1c0-5 5-10 11-10 6 1 10 6 10 11zm77 1h-21 21l-3 18-1 5-4 10-4 8-9 9-3 2-8 4-4 1h-8l-4-1-4-2-3-1-4-3-6-6-2-3-2-4-2-5-2-4-2-10-2-12v-6h21v10l2 8 1 3 1 4 2 4 2 2 1 2 1 1 2 1h1l1 1h4l1-1h2l6-6 1-2 2-3 1-3 3-12v-5l1-5zm-21-1c0-5 5-10 11-10 5 1 10 6 10 11zm76 1h-21 21v6l-2 12-1 5-4 10-2 4-3 4-2 3-6 6-4 2-3 2-4 2-4 1h-8l-4-1-4-2-4-1-12-12-2-4-2-5-1-4-2-5-1-5-1-6v-12h21v10l1 4v4l1 3 1 4 2 2 2 4 4 4h1l1 1h5l1-1h1l2-1 1-2 2-1 1-2 2-2 2-6 2-4 1-4v-4l1-5v-5zm-21-1c1-5 5-10 11-10 6 1 10 6 10 11zm77 1h-21 21l-3 18-1 5-2 5-1 5-3 4-2 4-9 9-3 2-8 4-4 1h-8l-4-1-4-2-3-1-4-3-3-3-2-3-3-3-2-4-2-5-2-4-2-10-2-12v-6h21v5l1 5v4l1 4 1 3 1 4 1 2 2 2 2 4 2 1 1 1h1l1 1h4l2-1h1l6-6 1-2 2-3 1-3 3-12 1-5v-5zm-21-1c0-5 5-10 11-10 6 1 10 6 10 11zm76 1h-21 21v6l-2 12-1 5-4 10-2 4-3 4-2 3-6 6-4 2-3 2-4 2-4 1h-8l-4-1-4-2-4-1-9-9-2-3-3-4-2-5-1-4-2-5-1-5-1-6v-12h21v10l2 8v3l5 10 4 4h2l1 1h4l1-1h1l2-1 1-2 2-1 1-2 2-2 2-6 2-4 1-4v-4l1-5v-5zm-21-1c1-5 6-10 11-10 6 1 11 6 10 11zm77 1h-21 21l-1 6v6l-1 6-2 5-1 5-2 5-3 4-2 4-9 9-3 2-8 4-4 1h-8l-4-1-3-2-4-1-3-3-4-3-2-3-3-3-2-4-2-5-2-4-2-10-1-6v-6l-1-6h21v5l1 5v4l1 4 1 3 1 4 1 2 2 2 2 4 2 1 1 1h1l1 1h4l2-1h1l6-6 1-2 2-3 1-3 3-12 1-5v-5zm-21-1c0-5 5-10 11-10 6 1 10 6 10 11zm76 1h-20 20v6l-2 12-1 5-4 10-4 8-9 9-4 2-3 2-4 2-4 1h-8l-4-1-4-2-3-1-4-3-6-6-2-3-3-4-2-5-1-4-2-5-1-5v-6l-1-6v-6h21v10l2 8 1 3 1 4 2 4 2 2 1 2 2 2h2l1 1h4l1-1h2l1-1 1-2 2-1 1-2 2-2 1-3 2-3 3-12v-5l1-5zm-20-1c0-5 5-10 10-10 6 1 11 6 10 11zm76 1h-21 21l-1 6v6l-1 6-2 5-1 5-2 5-2 4-3 4-3 3-2 3-4 3-3 2-4 2-3 2-4 1h-9l-3-1-4-2-4-1-12-12-2-4-2-5-2-4-2-10-1-6v-12h20v5l1 5v4l1 4 1 3 1 4 1 2 2 2 2 4 2 1 1 1h1l1 1h5l1-1h1l2-1 1-2 3-3 1-2 2-3 1-3 3-12 1-5v-5zm-21-1c0-5 5-10 11-10 6 1 10 6 10 11zm77 1h-21 20v6l-2 12-1 5-4 10-4 8-9 9-3 2-8 4-4 1h-8l-4-1-4-2-3-1-4-3-6-6-2-3-3-4-1-5-2-4-2-5-1-5v-6l-1-6v-6h21v10l2 8 1 3 1 4 2 4 2 2 1 2 1 1 2 1h1l1 1h4l1-1h2l6-6 1-2 1-3 2-3 3-12v-5l1-5zm-21-1c0-5 5-10 11-10 5 1 10 6 9 11zm76 1h-21 21v6l-2 12-2 5-1 5-2 5-2 4-3 4-2 3-3 3-4 3-3 2-4 2-3 2-4 1h-8l-4-1-4-2-4-1-12-12-2-4-2-5-2-4-2-10-1-6v-12h21v10l1 4v4l1 3 1 4 2 2 2 4 4 4h1l1 1h5l1-1h1l2-1 1-2 2-1 1-2 2-2 2-6 3-12 1-5v-5zm-21-1c0-5 5-10 11-10 6 1 10 6 10 11zm77 1h-21 21l-3 18-1 5-4 10-4 8-9 9-3 2-8 4-4 1h-8l-4-1-4-2-3-1-4-3-6-6-2-3-2-4-2-5-2-4-2-10-2-12v-6h21v10l2 8 1 3 1 4 2 4 2 2 1 2 1 1 2 1h1l1 1h4l1-1h2l6-6 1-2 2-3 1-3 3-12v-5l1-5zm-21-1c0-5 5-10 11-10 5 1 10 6 10 11zm76 1h-21 21v6l-2 12-1 5-4 10-2 4-3 4-2 3-6 6-4 2-3 2-4 2-4 1h-8l-4-1-4-2-4-1-12-12-2-4-2-5-1-4-2-5-1-5-1-6v-12h21v10l1 4v4l1 3 1 4 2 2 2 4 4 4h1l2 1h4l1-1h1l2-1 1-2 2-1 1-2 2-2 2-6 2-4 1-4v-4l1-5v-5zm-21-1c1-5 5-10 11-10 6 1 10 6 10 11zm80 2-21-2 21 4-2 6-2 5-2 6-2 5-2 4-3 5-2 4-3 3-3 4-3 3-3 2-4 3-3 1-4 2-4 1h-8l-4-1-3-2-4-2-3-2-3-3-2-3-3-4-2-4-1-4-2-5-2-10v-5l-1-6v-6h21v5l1 5v4l2 8v3l2 3 2 4 4 4h4l1-1h2l9-9 1-3 2-3 4-8 1-4 2-5 1-5zm-21-3c2-6 7-9 13-8 5 1 9 7 8 13zm52 1 21 1v7l-1 5-1 6-2 5-1 5-2 5-2 4-3 4-3 3-3 4-3 2-3 3-4 2-8 2h-8l-8-2-3-2-4-3-3-3-2-3-3-4-2-4-1-4-2-5-1-5v-5l-1-6 1-6v-6l21 2-1 5v9l2 8v3l2 4 6 6h6l2-1 6-6 2-3 1-2 1-3 2-4 1-4v-4l1-5zm0 0c1-5 6-10 11-10 6 1 11 6 10 11zm0 1c1-6 5-11 11-11s10 5 10 11zm56-1 21 1-1 6v6l-1 6-2 5-1 5-2 5-3 4-2 4-9 9-3 2-8 4-4 1h-8l-4-1-3-2-4-1-3-3-4-3-2-3-3-3-2-4-2-5-2-4-1-5-1-6-1-5v-6l-1-6h21v5l1 5v4l1 4 1 3 1 4 1 2 2 2 2 4 2 1 1 1h1l1 1h4l2-1h1l6-6 1-2 2-3 1-3 3-12 1-5zm0 0c0-5 5-10 11-10 6 1 10 6 10 11z"/>
   
   <polygon class="fil0 str0" points="187 67 300 67 300 10 187 10"/>
  
 </g>
</svg>
